<?xml version="1.0" encoding="UTF-8" standalone="no"?>
<!DOCTYPE svg PUBLIC "-//W3C//DTD SVG 1.1//EN" "http://www.w3.org/Graphics/SVG/1.1/DTD/svg11.dtd">
<svg version="1.1" xmlns="http://www.w3.org/2000/svg" xmlns:xlink="http://www.w3.org/1999/xlink" preserveAspectRatio="xMidYMid meet" viewBox="0 0 420 420" width="420" height="420"><defs><path d="M296.34 53.23L302.15 56.64L307.82 60.26L313.32 64.1L318.68 68.13L323.86 72.36L328.88 76.78L333.72 81.38L338.38 86.16L342.85 91.12L347.13 96.24L351.22 101.53L355.1 106.97L358.77 112.56L362.22 118.3L365.45 124.18L368.46 130.19L371.24 136.33L373.78 142.6L376.07 148.98L378.12 155.47L379.91 162.07L381.44 168.77L382.71 175.57L383.7 182.45L384.42 189.42L384.85 196.47L385 203.59L384.85 210.71L384.42 217.76L383.7 224.73L382.71 231.62L381.44 238.41L379.91 245.12L378.12 251.72L376.07 258.21L373.78 264.59L371.24 270.86L368.46 277L365.45 283.01L362.22 288.89L358.77 294.63L355.1 300.22L351.22 305.66L347.13 310.95L342.85 316.07L338.38 321.02L333.72 325.81L328.88 330.41L323.86 334.83L318.68 339.06L313.32 343.09L307.82 346.92L302.15 350.55L296.34 353.96L290.39 357.16L284.31 360.13L278.09 362.87L271.75 365.38L265.29 367.64L258.71 369.67L252.03 371.44L245.25 372.95L238.37 374.2L231.4 375.18L224.34 375.89L217.21 376.32L210 376.46L202.79 376.32L195.66 375.89L188.6 375.18L181.63 374.2L174.75 372.95L167.97 371.44L161.29 369.67L154.71 367.64L148.25 365.38L141.91 362.87L135.69 360.13L129.61 357.16L123.66 353.96L117.85 350.55L112.18 346.92L106.68 343.09L101.32 339.06L96.14 334.83L91.12 330.41L86.28 325.81L81.62 321.02L77.15 316.07L72.87 310.95L68.78 305.66L64.9 300.22L61.23 294.63L57.78 288.89L54.55 283.01L51.54 277L48.76 270.86L46.22 264.59L43.93 258.21L41.88 251.72L40.09 245.12L38.56 238.41L37.29 231.62L36.3 224.73L35.58 217.76L35.15 210.71L35 203.59L35.15 196.47L35.58 189.42L36.3 182.45L37.29 175.57L38.56 168.77L40.09 162.07L41.88 155.47L43.93 148.98L46.22 142.6L48.76 136.33L51.54 130.19L54.55 124.18L57.78 118.3L61.23 112.56L64.9 106.97L68.78 101.53L72.87 96.24L77.15 91.12L81.62 86.16L86.28 81.38L91.12 76.78L96.14 72.36L101.32 68.13L106.68 64.1L112.18 60.26L117.85 56.64L123.66 53.23L129.61 50.03L135.69 47.06L141.91 44.32L148.25 41.81L154.71 39.54L161.29 37.52L167.97 35.75L174.75 34.24L181.63 32.99L188.6 32.01L190.34 31.83L190.34 75.41L186.65 75.99L181.53 77L176.49 78.21L171.52 79.61L166.64 81.2L161.84 82.96L157.13 84.91L152.51 87.03L147.99 89.32L143.57 91.78L139.26 94.39L135.06 97.17L130.98 100.1L127.01 103.18L123.17 106.4L119.46 109.77L115.88 113.27L112.43 116.91L109.13 120.67L105.97 124.56L102.96 128.57L100.11 132.7L97.42 136.94L94.88 141.29L92.52 145.75L90.33 150.3L88.31 154.96L86.47 159.7L84.82 164.53L83.36 169.45L82.09 174.45L81.02 179.52L80.14 184.67L79.48 189.88L79.03 195.16L78.79 200.49L78.77 205.83L78.97 211.13L79.38 216.37L80 221.55L80.82 226.66L81.85 231.72L83.07 236.7L84.49 241.6L86.09 246.43L87.88 251.17L89.85 255.82L92 260.38L94.32 264.85L96.8 269.21L99.45 273.47L102.26 277.62L105.23 281.65L108.35 285.57L111.61 289.37L115.02 293.04L118.56 296.57L122.25 299.97L126.06 303.24L130 306.36L134.06 309.33L138.24 312.15L142.53 314.81L146.93 317.31L151.44 319.64L156.05 321.81L160.76 323.8L165.57 325.62L170.46 327.25L175.44 328.69L180.49 329.95L185.63 331.01L190.84 331.87L196.12 332.52L201.46 332.97L206.86 333.21L212.27 333.23L217.63 333.03L222.93 332.63L228.17 332.01L233.35 331.2L238.47 330.18L243.51 328.98L248.48 327.58L253.36 325.99L258.16 324.22L262.87 322.28L267.49 320.16L272.01 317.87L276.43 315.41L280.74 312.79L284.94 310.02L289.02 307.09L292.99 304.01L296.83 300.79L300.54 297.42L304.12 293.92L307.57 290.28L310.87 286.51L314.03 282.62L317.04 278.61L319.89 274.48L322.58 270.24L325.12 265.89L327.48 261.44L329.67 256.88L331.69 252.23L333.53 247.49L335.18 242.65L336.64 237.74L337.91 232.74L338.98 227.67L339.86 222.52L340.52 217.31L340.97 212.03L341.21 206.69L341.23 201.35L341.03 196.06L340.62 190.82L340 185.64L339.18 180.52L338.15 175.47L336.93 170.49L335.51 165.59L333.91 160.76L332.12 156.02L330.15 151.36L328 146.8L325.68 142.34L323.2 137.97L320.55 133.72L317.74 129.57L314.77 125.53L311.65 121.61L308.39 117.82L304.98 114.15L301.44 110.61L297.75 107.21L293.94 103.95L290 100.83L285.94 97.86L281.76 95.04L277.56 92.44L268.28 120.35L266.94 120.7L210.78 49.63L299.5 26.46L291.47 50.61L296.34 53.23Z" id="c2A531YQZJ"></path><path d="M406.65 171.69L407.26 171.77L407.86 171.88L408.45 172.02L409.03 172.17L409.6 172.35L410.16 172.55L410.71 172.77L411.25 173.01L411.78 173.27L412.3 173.55L412.8 173.85L413.29 174.17L413.77 174.51L414.24 174.86L414.69 175.23L415.12 175.62L415.55 176.03L415.95 176.45L416.34 176.88L416.71 177.34L417.07 177.8L417.4 178.28L417.72 178.77L418.02 179.28L418.3 179.79L418.56 180.32L418.8 180.86L419.03 181.41L419.22 181.98L419.4 182.55L419.56 183.13L419.69 183.72L419.8 184.32L419.89 184.92L419.95 185.54L419.99 186.16L420 186.78L420 206.36L419.99 206.99L419.95 207.61L419.89 208.23L419.8 208.83L419.69 209.43L419.56 210.02L419.4 210.6L419.22 211.17L419.03 211.73L418.8 212.28L418.56 212.82L418.3 213.35L418.02 213.87L417.72 214.38L417.4 214.87L417.07 215.35L416.71 215.81L416.34 216.26L415.95 216.7L415.55 217.12L415.12 217.52L414.69 217.91L414.24 218.28L413.77 218.64L413.29 218.98L412.8 219.29L412.3 219.59L411.78 219.88L411.25 220.14L410.71 220.38L410.16 220.6L409.6 220.8L409.03 220.98L408.45 221.13L407.86 221.26L407.26 221.37L406.65 221.46L406.04 221.52L405.42 221.56L404.79 221.57L209.56 221.57L239.26 251.28L404.54 251.28L405.17 251.29L405.8 251.33L406.43 251.39L407.04 251.48L407.65 251.59L408.25 251.73L408.84 251.88L409.42 252.06L409.99 252.27L410.56 252.49L411.1 252.74L411.64 253L412.17 253.29L412.68 253.59L413.18 253.92L413.67 254.26L414.14 254.62L414.6 255L415.04 255.39L415.47 255.81L415.88 256.23L416.28 256.68L416.66 257.13L417.02 257.61L417.36 258.09L417.68 258.59L417.99 259.11L418.27 259.63L418.54 260.17L418.78 260.72L419.01 261.28L419.21 261.85L419.39 262.43L419.55 263.02L419.69 263.62L419.8 264.23L419.89 264.85L419.95 265.47L419.99 266.1L420 266.74L420 285.81L419.99 286.45L419.95 287.08L419.89 287.7L419.8 288.32L419.69 288.93L419.55 289.53L419.39 290.12L419.21 290.7L419.01 291.27L418.78 291.83L418.54 292.38L418.27 292.92L417.99 293.45L417.68 293.96L417.36 294.46L417.02 294.95L416.66 295.42L416.28 295.88L415.88 296.32L415.47 296.75L415.04 297.16L414.6 297.55L414.14 297.93L413.67 298.29L413.18 298.64L412.68 298.96L412.17 299.26L411.64 299.55L411.1 299.82L410.56 300.06L409.99 300.29L409.42 300.49L408.84 300.67L408.25 300.83L407.65 300.96L407.04 301.07L406.43 301.16L405.8 301.23L405.17 301.26L404.54 301.28L225.46 301.28L224.83 301.26L224.2 301.23L223.57 301.16L222.96 301.07L222.35 300.96L221.75 300.83L221.16 300.67L220.58 300.49L220.01 300.29L219.44 300.06L218.9 299.82L218.36 299.55L217.83 299.26L217.32 298.96L216.82 298.64L216.33 298.29L215.86 297.93L215.4 297.55L214.96 297.16L214.53 296.75L214.36 296.57L214.14 296.44L213.79 296.22L213.45 295.99L213.12 295.74L212.79 295.47L212.47 295.19L212.17 294.89L191.18 273.9L190.86 273.58L189.86 272.58L189.16 271.88L188.79 271.52L187.3 270.02L185.74 268.46L185.35 268.07L184.95 267.67L184.15 266.88L183.36 266.08L180.63 263.35L178.8 261.52L178.45 261.17L177.77 260.49L177.45 260.17L177.13 259.85L138.86 221.57L15.21 221.57L14.58 221.56L13.96 221.52L13.35 221.46L12.74 221.37L12.14 221.26L11.55 221.13L10.97 220.98L10.4 220.8L9.84 220.6L9.29 220.38L8.75 220.14L8.22 219.88L7.7 219.59L7.2 219.29L6.71 218.98L6.23 218.64L5.76 218.28L5.31 217.91L4.88 217.52L4.45 217.12L4.05 216.7L3.66 216.26L3.29 215.81L2.93 215.35L2.6 214.87L2.28 214.38L1.98 213.87L1.7 213.35L1.44 212.82L1.2 212.28L0.97 211.73L0.78 211.17L0.6 210.6L0.44 210.02L0.31 209.43L0.2 208.83L0.11 208.23L0.05 207.61L0.01 206.99L0 206.36L0 186.78L0.01 186.16L0.05 185.54L0.11 184.92L0.2 184.32L0.31 183.72L0.44 183.13L0.6 182.55L0.78 181.98L0.97 181.41L1.2 180.86L1.44 180.32L1.7 179.79L1.98 179.28L2.28 178.77L2.6 178.28L2.93 177.8L3.29 177.34L3.66 176.88L4.05 176.45L4.45 176.03L4.88 175.62L5.31 175.23L5.76 174.86L6.23 174.51L6.71 174.17L7.2 173.85L7.7 173.55L8.22 173.27L8.75 173.01L9.29 172.77L9.84 172.55L10.4 172.35L10.97 172.17L11.55 172.02L12.14 171.88L12.74 171.77L13.35 171.69L13.96 171.62L14.58 171.59L15.21 171.57L404.79 171.57L405.42 171.59L406.04 171.62L406.04 171.62L406.65 171.69Z" id="b4oR7ST0Xd"></path><path d="M196.43 95.07L197.04 95.15L197.65 95.27L198.25 95.4L198.84 95.56L199.42 95.74L199.99 95.94L200.56 96.17L201.1 96.41L201.64 96.68L202.17 96.96L202.68 97.27L203.18 97.59L203.67 97.94L204.14 98.3L204.6 98.67L205.04 99.07L205.47 99.48L205.88 99.91L206.28 100.35L206.66 100.81L207.02 101.28L207.36 101.77L207.68 102.27L207.99 102.78L208.27 103.31L208.54 103.85L208.78 104.4L209.01 104.96L209.21 105.53L209.39 106.11L209.55 106.7L209.69 107.3L209.8 107.91L209.89 108.52L209.95 109.15L209.99 109.78L210 110.42L210 129.49L209.99 130.13L209.95 130.76L209.89 131.38L209.8 132L209.69 132.61L209.55 133.2L209.39 133.8L209.21 134.38L209.01 134.95L208.78 135.51L208.54 136.06L208.27 136.6L207.99 137.12L207.68 137.63L207.36 138.13L207.02 138.62L206.66 139.09L206.28 139.55L205.88 140L205.47 140.42L205.04 140.83L204.6 141.23L204.14 141.61L203.67 141.97L203.18 142.31L202.68 142.64L202.17 142.94L201.64 143.23L201.1 143.49L200.56 143.74L199.99 143.96L199.42 144.16L198.84 144.34L198.25 144.5L197.65 144.64L197.04 144.75L196.43 144.84L195.8 144.9L195.17 144.94L194.54 144.95L15.46 144.95L14.83 144.94L14.2 144.9L13.57 144.84L12.96 144.75L12.35 144.64L11.75 144.5L11.16 144.34L10.58 144.16L10.01 143.96L9.44 143.74L8.9 143.49L8.36 143.23L7.83 142.94L7.32 142.64L6.82 142.31L6.33 141.97L5.86 141.61L5.4 141.23L4.96 140.83L4.53 140.42L4.12 140L3.72 139.55L3.34 139.09L2.98 138.62L2.64 138.13L2.32 137.63L2.01 137.12L1.73 136.6L1.46 136.06L1.22 135.51L0.99 134.95L0.79 134.38L0.61 133.8L0.45 133.2L0.31 132.61L0.2 132L0.11 131.38L0.05 130.76L0.01 130.13L0 129.49L0 110.42L0.01 109.78L0.05 109.15L0.11 108.52L0.2 107.91L0.31 107.3L0.45 106.7L0.61 106.11L0.79 105.53L0.99 104.96L1.22 104.4L1.46 103.85L1.73 103.31L2.01 102.78L2.32 102.27L2.64 101.77L2.98 101.28L3.34 100.81L3.72 100.35L4.12 99.91L4.53 99.48L4.96 99.07L5.4 98.67L5.86 98.3L6.33 97.94L6.82 97.59L7.32 97.27L7.83 96.96L8.36 96.68L8.9 96.41L9.44 96.17L10.01 95.94L10.58 95.74L11.16 95.56L11.75 95.4L12.35 95.27L12.96 95.15L13.57 95.07L14.2 95L14.83 94.97L15.46 94.95L194.54 94.95L195.17 94.97L195.8 95L195.8 95L196.43 95.07Z" id="f6n8uosT12"></path></defs><g><g><g><use xlink:href="#c2A531YQZJ" opacity="1" fill="#888589" fill-opacity="1"></use></g><g><use xlink:href="#b4oR7ST0Xd" opacity="1" fill="#38ff00" fill-opacity="1"></use></g><g><use xlink:href="#f6n8uosT12" opacity="1" fill="#ff0000" fill-opacity="1"></use></g></g></g></svg>